<?xml version="1.0" standalone="no"?>
<!DOCTYPE svg PUBLIC "-//W3C//DTD SVG 20010904//EN"
 "http://www.w3.org/TR/2001/REC-SVG-20010904/DTD/svg10.dtd">
<svg version="1.0" xmlns="http://www.w3.org/2000/svg"
 width="920.000000pt" height="670.000000pt" viewBox="0 0 920.000000 670.000000"
 preserveAspectRatio="xMidYMid meet">

<g transform="translate(0.000000,670.000000) scale(0.100000,-0.100000)"
fill="#000000" stroke="none">
<path d="M8185 6656 c-130 -27 -159 -39 -271 -107 -47 -28 -88 -49 -91 -46 -3
3 0 27 5 54 6 26 9 49 7 52 -9 8 -56 -11 -84 -35 -17 -14 -42 -47 -57 -74
l-26 -48 -34 14 -33 14 -7 -37 c-4 -20 -2 -61 3 -92 12 -64 10 -73 -8 -39 -7
12 -14 64 -16 113 -6 132 -7 137 -41 123 -15 -6 -42 -27 -60 -46 l-32 -36 -45
22 -45 22 -5 -23 c-4 -12 -1 -43 4 -67 19 -82 15 -102 -38 -171 -26 -35 -72
-86 -100 -113 -48 -44 -56 -48 -88 -43 -19 4 -56 17 -82 30 -65 34 -191 73
-296 93 -73 13 -125 15 -275 10 -243 -7 -380 -27 -510 -71 -58 -20 -112 -38
-120 -40 -8 -2 -22 -6 -30 -9 -12 -5 -22 11 -43 67 -35 95 -97 191 -136 211
-133 69 -452 -94 -737 -378 -139 -138 -184 -202 -184 -258 0 -38 0 -38 -42
-38 -23 0 -95 7 -160 16 -65 9 -134 13 -153 10 -43 -8 -91 -55 -99 -98 -16
-85 59 -256 199 -452 100 -138 170 -213 328 -344 68 -57 87 -79 85 -95 -3 -20
-9 -22 -77 -23 -83 -1 -106 -16 -94 -62 6 -25 5 -25 -43 -18 -147 19 -157 19
-194 -6 -49 -33 -62 -63 -55 -128 2 -30 9 -145 14 -255 7 -170 13 -214 36
-295 34 -119 74 -221 114 -289 17 -28 31 -54 31 -58 0 -3 15 -31 34 -62 28
-45 64 -148 79 -224 4 -21 -45 -19 -75 3 -17 12 -49 25 -72 27 -25 4 -52 16
-71 33 -16 15 -46 37 -65 50 -19 13 -48 39 -63 57 -35 41 -95 76 -173 103 -32
11 -60 20 -62 19 -1 0 -35 5 -74 11 -94 16 -205 9 -247 -16 -47 -27 -71 -80
-71 -156 0 -40 -7 -78 -20 -105 l-19 -43 -123 44 c-263 94 -379 151 -413 205
-13 22 -29 42 -35 46 -6 3 -54 10 -108 14 -95 8 -100 9 -258 89 -160 80 -347
182 -401 220 -15 11 -71 48 -123 82 -204 136 -354 265 -365 315 -15 69 -18 72
-97 78 -40 3 -95 14 -123 25 -296 120 -324 136 -935 545 -254 170 -326 203
-418 194 -61 -6 -137 -40 -147 -65 -4 -9 -12 -55 -19 -102 l-12 -85 -43 -24
c-48 -26 -71 -67 -71 -125 0 -45 22 -59 115 -77 60 -11 170 -49 515 -176 141
-52 250 -97 355 -148 457 -221 480 -233 545 -292 36 -32 83 -66 105 -75 169
-71 326 -144 360 -166 22 -14 117 -65 210 -112 94 -48 193 -100 220 -115 28
-15 102 -55 165 -88 72 -38 137 -81 175 -115 84 -78 135 -107 218 -127 96 -23
228 -62 302 -90 33 -13 118 -44 188 -71 l128 -48 -7 -40 c-11 -65 -6 -109 16
-166 59 -150 165 -282 268 -334 28 -14 82 -33 119 -42 62 -14 78 -14 182 1 77
11 117 13 124 6 7 -7 3 -25 -10 -58 -25 -59 -59 -167 -67 -210 -5 -32 -4 -33
27 -33 18 0 86 7 151 16 65 8 120 13 122 11 3 -2 -9 -37 -26 -78 -17 -41 -38
-91 -47 -112 l-16 -39 -46 46 c-79 77 -151 94 -231 54 -55 -29 -90 -90 -90
-157 0 -36 8 -59 34 -100 31 -47 34 -59 29 -100 -6 -52 10 -113 53 -205 l27
-59 -29 -24 c-56 -45 -67 -58 -91 -113 -13 -30 -53 -116 -87 -190 -83 -178
-126 -277 -126 -293 0 -25 -68 -154 -84 -160 -18 -7 -82 21 -131 58 -16 12
-45 30 -62 39 -30 15 -35 15 -64 1 -57 -30 -76 -123 -40 -200 24 -53 120 -148
204 -202 77 -50 116 -68 169 -76 36 -5 38 -4 38 20 0 19 4 24 16 19 41 -16
124 -17 192 -2 100 21 196 66 365 173 22 14 40 23 41 21 2 -2 15 -26 30 -54
69 -128 189 -223 356 -280 95 -34 117 -37 240 -42 225 -8 356 29 546 153 110
72 124 75 234 50 76 -18 170 -54 170 -65 0 -5 -20 -27 -45 -51 -53 -51 -78
-99 -69 -134 10 -39 57 -80 108 -95 42 -11 53 -10 114 9 128 42 284 189 313
294 10 38 8 53 -21 142 -44 137 -41 132 -101 210 -103 136 -190 232 -231 255
-58 33 -78 56 -78 91 0 34 28 89 45 89 6 0 29 -30 50 -67 56 -96 95 -146 190
-244 51 -53 105 -97 141 -116 65 -34 242 -98 295 -107 239 -37 328 -33 482 18
59 20 115 36 125 36 30 0 138 57 160 84 11 15 44 72 72 128 61 117 67 175 29
250 -21 42 -22 47 -11 163 16 164 15 227 -7 318 l-19 78 25 10 c13 5 28 9 32
9 14 0 127 79 152 106 47 52 56 97 33 157 -4 10 4 16 28 21 57 10 295 26 518
35 251 10 303 24 375 96 62 62 170 252 195 343 16 62 5 86 -74 153 -39 34 -72
65 -74 69 -1 4 19 15 45 24 138 50 152 62 181 156 11 36 34 103 50 150 78 217
54 574 -52 794 -47 97 -88 135 -157 145 -30 5 -74 18 -99 29 -75 36 -113 27
-150 -33 -31 -51 -48 -57 -107 -38 -28 9 -61 13 -74 10 -32 -8 -99 -66 -183
-157 -38 -41 -121 -129 -184 -195 -276 -289 -347 -357 -390 -376 -69 -30 -72
-28 -72 46 0 84 15 118 84 185 37 36 60 68 67 92 9 36 136 216 242 343 49 59
104 160 112 207 2 12 11 61 19 108 8 47 20 110 27 140 14 65 9 131 -25 385
-50 364 -57 407 -87 503 -18 59 -34 144 -41 216 l-12 119 61 56 c34 31 64 66
68 78 8 28 -18 88 -43 102 -32 17 -106 13 -162 -8 -27 -11 -52 -15 -55 -10 -7
10 -35 101 -35 112 0 4 56 7 125 7 116 0 130 -2 178 -26 78 -40 133 -90 162
-147 31 -64 31 -98 -1 -203 -14 -46 -24 -96 -22 -110 l3 -25 45 24 c57 30 106
94 176 230 30 59 57 107 59 107 2 0 11 -22 20 -50 18 -55 26 -59 54 -31 19 19
29 61 34 149 l2 44 28 -22 c15 -12 31 -20 34 -16 9 9 4 145 -8 206 -6 30 -17
74 -26 98 -9 23 -13 45 -10 48 3 3 29 -2 58 -10 29 -9 54 -16 56 -16 10 0 0
61 -16 95 -22 49 -42 67 -150 135 -148 93 -258 139 -361 152 -56 7 -89 15 -87
22 2 6 32 33 68 59 93 70 132 109 116 119 -22 14 -130 7 -242 -16z m-1432
-520 c134 -30 158 -38 307 -106 216 -98 257 -120 346 -178 136 -90 354 -270
354 -294 0 -30 -200 -138 -305 -164 -77 -19 -84 -28 -110 -148 -24 -107 -12
-270 37 -491 17 -81 87 -139 205 -169 87 -23 112 -20 197 19 132 62 199 139
210 240 11 99 38 227 47 218 14 -14 36 -150 60 -367 41 -394 -1 -658 -133
-823 -18 -23 -55 -70 -82 -105 -97 -125 -136 -156 -136 -109 0 17 -205 432
-252 511 -11 19 -48 82 -81 140 -206 357 -320 523 -519 751 -32 37 -58 71 -58
76 0 6 20 28 44 50 39 36 45 47 51 96 12 98 -22 155 -195 326 -221 218 -381
348 -578 467 -29 18 -48 35 -43 39 34 20 219 43 364 44 132 1 175 -3 270 -23z
m1070 -373 c-13 -26 -26 -64 -30 -85 -3 -21 -8 -38 -12 -38 -9 0 -51 64 -51
78 0 12 95 92 110 92 4 0 -3 -21 -17 -47z m-1662 0 c161 -110 311 -259 403
-402 36 -56 31 -67 -83 -166 -181 -157 -280 -217 -357 -217 -22 0 -96 64 -329
284 l-60 57 -4 91 c-1 50 0 102 3 115 6 22 203 228 251 261 11 8 43 14 71 14
43 0 61 -6 105 -37z m-895 -98 c23 -14 53 -39 65 -56 22 -31 22 -33 5 -78 -22
-61 -21 -74 10 -110 21 -25 25 -38 20 -65 -9 -46 21 -86 125 -165 89 -69 419
-356 571 -497 99 -94 131 -108 228 -102 60 3 73 8 121 44 77 58 76 57 107 36
33 -24 309 -318 496 -530 117 -132 151 -181 257 -355 67 -111 165 -269 218
-352 l96 -150 -1 -258 c-1 -237 -3 -259 -20 -278 -46 -51 -214 7 -425 147 -54
36 -101 70 -104 74 -3 4 2 13 9 20 18 14 27 10 143 -67 113 -74 198 -112 258
-115 50 -3 50 -3 48 26 -6 77 -309 440 -725 866 -261 268 -444 442 -663 630
-387 333 -528 452 -595 500 -41 30 -130 101 -198 157 -67 57 -134 111 -150
120 -61 40 -205 154 -224 179 -21 26 -214 174 -298 228 -186 119 -263 152
-294 127 -9 -8 -16 -21 -16 -29 0 -12 -3 -13 -11 -5 -17 17 14 61 47 69 14 4
51 4 82 0 32 -4 98 -11 147 -16 50 -5 110 -15 135 -23 65 -21 226 -40 271 -33
21 3 72 24 114 46 42 22 83 40 92 40 9 0 35 -11 59 -25z m3589 -1837 c106
-116 194 -270 235 -412 20 -69 22 -93 17 -210 -6 -142 -21 -226 -41 -226 -9 0
-15 27 -20 88 -9 119 -79 406 -127 522 -49 117 -105 195 -140 194 -13 -1 -31
-4 -39 -8 -9 -3 -24 0 -34 7 -19 14 -19 15 4 48 53 77 72 77 145 -3z m122 0
c52 -58 129 -238 102 -238 -5 0 -20 23 -34 51 -14 27 -44 79 -65 115 -39 62
-49 94 -32 94 5 0 18 -10 29 -22z m-374 -48 c28 -18 47 -37 47 -48 0 -11 -24
-36 -62 -63 -34 -24 -130 -98 -214 -164 -83 -66 -175 -138 -204 -160 -29 -22
-106 -86 -172 -142 -109 -94 -138 -115 -138 -97 0 16 206 248 394 444 56 58
133 140 172 183 83 90 102 95 177 47z m219 -112 c86 -157 169 -500 185 -769
l6 -97 -49 -15 c-320 -101 -613 -236 -954 -440 -159 -95 -155 -92 -245 -157
-38 -27 -77 -50 -86 -50 -9 0 -45 21 -80 48 -34 26 -94 70 -133 97 -92 65 -93
76 -22 180 31 44 84 121 118 170 151 219 343 430 553 604 172 142 644 491 666
491 4 0 23 -28 41 -62z m-3922 -554 c29 -9 72 -27 94 -42 23 -14 93 -52 156
-85 285 -148 452 -204 695 -233 199 -23 236 -31 270 -58 38 -31 29 -41 -18
-21 -49 20 -65 19 -72 -7 -24 -87 -71 -228 -76 -228 -3 0 -40 32 -82 71 -83
76 -103 81 -113 29 -8 -38 -34 -62 -34 -31 0 32 -28 37 -69 14 -136 -77 -174
-101 -238 -154 -39 -32 -74 -59 -77 -59 -3 0 -6 23 -6 50 0 67 -14 66 -121
-13 -100 -73 -178 -111 -276 -131 -39 -9 -97 -27 -129 -41 -78 -35 -87 -30
-78 42 4 32 13 67 20 78 16 23 19 75 4 75 -6 0 -25 -6 -43 -13 -18 -8 -66 -17
-107 -21 -41 -4 -121 -21 -178 -37 -57 -17 -105 -29 -108 -27 -12 13 59 184
105 253 27 38 28 75 3 75 -44 0 -36 21 49 128 33 40 59 78 59 84 0 6 -7 19
-15 28 -14 15 -13 19 10 43 34 33 81 55 147 67 64 13 87 30 63 50 -14 12 -10
16 37 39 48 24 53 29 53 59 0 37 3 38 75 16z m2361 -344 c86 -50 185 -90 220
-90 22 0 31 -13 23 -34 -5 -12 -9 -13 -24 -3 -28 17 -57 -15 -124 -138 -45
-83 -60 -103 -74 -98 -9 3 -69 26 -131 51 l-115 45 -84 -27 c-78 -26 -117 -30
-75 -8 42 23 209 84 309 113 138 41 170 54 178 75 6 15 0 16 -61 11 -84 -8
-165 -31 -313 -90 -145 -57 -178 -64 -219 -43 -17 9 -31 22 -31 29 0 19 393
257 425 257 5 0 49 -23 96 -50z m1567 -196 c19 -12 22 -23 22 -73 0 -94 -59
-361 -80 -361 -13 0 -13 -3 11 66 18 52 20 73 15 174 -7 137 -14 170 -32 170
-11 0 -14 -24 -14 -119 0 -66 -6 -153 -14 -194 -14 -71 -48 -155 -68 -168 -5
-3 -73 -4 -151 -1 -92 3 -197 -1 -297 -11 -410 -42 -418 -42 -448 -20 -42 31
-40 65 5 100 44 35 186 127 258 168 250 140 490 262 565 286 37 12 201 -1 228
-17z m107 -71 c12 -12 15 -25 10 -52 -8 -44 -37 -109 -60 -136 l-17 -20 7 20
c4 11 10 56 12 100 6 113 13 124 48 88z m-1719 -155 c82 -41 188 -101 236
-134 93 -63 366 -297 375 -321 10 -27 -16 -62 -69 -93 -71 -41 -90 -37 -268
62 -198 110 -224 130 -415 316 -184 180 -188 188 -123 231 51 34 96 24 264
-61z m-2927 -319 c17 -6 36 -20 43 -32 9 -18 6 -24 -23 -48 -19 -15 -52 -43
-74 -63 -49 -44 -70 -45 -90 -6 -20 39 -19 68 5 108 30 49 76 63 139 41z m112
-129 c29 -16 24 -37 -37 -127 -58 -87 -94 -166 -94 -208 0 -43 -15 -27 -43 44
-34 87 -34 130 0 193 45 82 121 126 174 98z m340 -46 c35 -30 87 -69 114 -85
28 -16 58 -35 69 -43 20 -17 14 -36 -13 -36 -46 0 -256 -137 -333 -217 -41
-42 -158 -253 -158 -285 0 -42 -27 -7 -67 88 -47 110 -50 135 -29 266 32 197
176 367 312 368 35 0 49 -8 105 -56z m2745 -216 c95 -27 97 -29 115 -165 12
-94 8 -185 -12 -260 l-14 -53 -87 0 c-80 0 -88 -2 -99 -22 -6 -13 -35 -61 -64
-108 -28 -47 -67 -111 -86 -142 -18 -32 -38 -58 -44 -58 -17 1 -220 153 -248
185 -24 29 -97 195 -97 221 0 7 33 25 73 40 82 31 108 47 192 119 33 29 73 60
88 70 33 21 71 84 86 141 9 34 8 46 -9 79 -33 64 -25 67 53 20 42 -26 106 -54
153 -67z m-2071 36 c33 -9 76 -26 96 -39 40 -26 165 -172 155 -182 -3 -3 -19
0 -36 7 -64 27 -284 38 -412 21 -178 -24 -258 -56 -393 -156 -174 -130 -286
-308 -313 -502 l-7 -48 -28 75 c-23 63 -27 91 -27 175 0 88 4 112 34 198 74
209 222 349 455 430 130 45 342 54 476 21z m-90 -364 c22 -5 63 -10 90 -11 79
-4 154 -34 203 -82 64 -62 125 -143 162 -217 31 -60 32 -69 27 -140 -7 -87
-38 -188 -78 -246 -43 -63 -138 -145 -220 -189 l-74 -40 -125 0 c-139 0 -202
12 -299 58 -75 35 -135 86 -160 136 -26 50 -51 169 -51 238 0 71 28 175 63
235 60 102 203 210 309 232 36 8 74 19 84 25 23 13 20 13 69 1z m2242 -225
c93 -39 102 -84 40 -205 -12 -22 -19 -25 -67 -23 -30 2 -57 6 -62 11 -4 4 9
32 29 61 45 64 49 108 13 146 -20 21 -21 25 -6 25 9 0 33 -7 53 -15z m-17
-293 c-1 -44 -60 -82 -127 -82 -29 0 -53 3 -53 6 0 10 60 92 70 96 5 1 32 1
60 0 39 -3 50 -8 50 -20z"/>
</g>
</svg>
